<svg width="128" height="42" viewBox="0 0 128 42" fill="none" xmlns="http://www.w3.org/2000/svg">
<g clip-path="url(#clip0_18_599)">
<path d="M123.163 25.1052L126.672 27.4206C125.533 29.0808 122.81 31.9295 118.101 31.9295C112.255 31.9295 107.9 27.4511 107.9 21.7541C107.9 15.6917 112.301 11.5789 117.609 11.5789C122.948 11.5789 125.564 15.7829 126.41 18.0525L126.872 19.2103L113.116 24.8463C114.163 26.8875 115.794 27.9233 118.101 27.9233C120.41 27.9233 122.01 26.7961 123.163 25.1052ZM112.378 21.4345L121.563 17.6566C121.056 16.3925 119.548 15.4939 117.747 15.4939C115.455 15.4939 112.27 17.5045 112.378 21.4345Z" fill="#037B35"/>
<path d="M101.27 1.20557H105.701V31.0003H101.27V1.20532V1.20557Z" fill="#037B35"/>
<path d="M94.2847 12.3709H98.5621V30.4671C98.5621 37.9765 94.0846 41.0687 88.7916 41.0687C83.8065 41.0687 80.8063 37.7481 79.683 35.052L83.6065 33.4372C84.3141 35.0975 86.0221 37.0627 88.7916 37.0627C92.1919 37.0627 94.2847 34.9758 94.2847 31.0764V29.6142H94.1308C93.1152 30.8326 91.1765 31.9293 88.7148 31.9293C83.5756 31.9293 78.8672 27.4966 78.8672 21.7846C78.8672 16.0419 83.5756 11.5637 88.7148 11.5637C91.1612 11.5637 93.1152 12.6452 94.1308 13.8334H94.2847V12.3711V12.3709ZM94.5922 21.7846C94.5922 18.1897 92.1766 15.5697 89.0993 15.5697C85.9912 15.5697 83.3755 18.1897 83.3755 21.7846C83.3755 25.3336 85.9912 27.9079 89.0993 27.9079C92.1768 27.9233 94.5924 25.3336 94.5924 21.7846H94.5922Z" fill="#037B35"/>
<path d="M54.5405 21.7084C54.5405 27.573 49.9247 31.8836 44.2624 31.8836C38.6004 31.8836 33.9844 27.5578 33.9844 21.7084C33.9844 15.8135 38.6004 11.5181 44.2624 11.5181C49.9247 11.5181 54.5405 15.8135 54.5405 21.7084ZM50.0477 21.7084C50.0477 18.0529 47.3703 15.5392 44.2624 15.5392C41.1545 15.5392 38.4772 18.0529 38.4772 21.7084C38.4772 25.3337 41.1545 27.8777 44.2624 27.8777C47.3706 27.8777 50.0477 25.3337 50.0477 21.7084Z" fill="#037B35"/>
<path d="M76.9897 21.7541C76.9897 27.6186 72.3737 31.9293 66.7117 31.9293C61.0494 31.9293 56.4336 27.6184 56.4336 21.7541C56.4336 15.8592 61.0494 11.5789 66.7117 11.5789C72.3737 11.5789 76.9897 15.844 76.9897 21.7541ZM72.4814 21.7541C72.4814 18.0985 69.8043 15.5848 66.6961 15.5848C63.5882 15.5848 60.9108 18.0985 60.9108 21.7541C60.9108 25.3793 63.5882 27.9233 66.6961 27.9233C69.8196 27.9233 72.4814 25.3642 72.4814 21.7541Z" fill="#037B35"/>
<path d="M17.0896 27.4663C10.6426 27.4663 5.59608 22.3177 5.59608 15.9353C5.59608 9.55304 10.6426 4.40444 17.0896 4.40444C20.567 4.40444 23.1056 5.76005 24.9827 7.49663L28.0756 4.435C25.4599 1.95215 21.9672 0.0629883 17.0896 0.0629883C8.25791 0.0632328 0.826172 7.1922 0.826172 15.9353C0.826172 24.6788 8.25791 31.8075 17.0896 31.8075C21.8595 31.8075 25.4599 30.2538 28.2756 27.3597C31.1681 24.4959 32.0605 20.4745 32.0605 17.2148C32.0605 16.1942 31.9375 15.1433 31.799 14.3664H17.0896V18.601H27.5677C27.26 21.2516 26.4138 23.0642 25.1675 24.2978C23.6596 25.806 21.2749 27.4663 17.0896 27.4663Z" fill="#037B35"/>
</g>
<defs>
<clipPath id="clip0_18_599">
<rect width="126.46" height="41.0793" fill="white" transform="translate(0.642578)"/>
</clipPath>
</defs>
</svg>
