<svg width="156" height="34" viewBox="0 0 156 34" fill="none" xmlns="http://www.w3.org/2000/svg">
<g clip-path="url(#clip0_18_587)">
<path d="M155.419 15.2314V12.4629H152.025V8.15907L151.911 8.19475L148.723 9.18259L148.66 9.20196V12.4632H143.628V10.6468C143.628 9.80106 143.815 9.15337 144.183 8.72157C144.548 8.29501 145.071 8.07819 145.738 8.07819C146.217 8.07819 146.713 8.1926 147.213 8.41833L147.338 8.47461V5.55908L147.279 5.53725C146.813 5.36748 146.179 5.28198 145.394 5.28198C144.404 5.28198 143.504 5.50034 142.72 5.93275C141.935 6.36577 141.317 6.98394 140.885 7.77034C140.454 8.5555 140.235 9.46245 140.235 10.466V12.4632H137.872V15.2317H140.235V26.8948H143.628V15.2314H148.66V22.6432C148.66 25.6959 150.082 27.2432 152.885 27.2432C153.346 27.2432 153.83 27.1882 154.326 27.0811C154.83 26.9713 155.173 26.8615 155.375 26.7441L155.419 26.7176V23.9233L155.282 24.0155C155.097 24.1404 154.868 24.2416 154.599 24.3169C154.329 24.3938 154.103 24.4325 153.929 24.4325C153.272 24.4325 152.786 24.2532 152.484 23.8996C152.18 23.5428 152.025 22.9185 152.025 22.0451V15.2314H155.419ZM130.295 24.4332C129.063 24.4332 128.093 24.0192 127.408 23.2045C126.72 22.3855 126.371 21.2181 126.371 19.7348C126.371 18.2047 126.72 17.0069 127.409 16.1734C128.093 15.3455 129.055 14.9254 130.267 14.9254C131.444 14.9254 132.38 15.3267 133.051 16.1187C133.725 16.9152 134.067 18.1033 134.067 19.6514C134.067 21.2184 133.745 22.4224 133.111 23.2276C132.481 24.0269 131.534 24.4332 130.295 24.4332ZM130.446 12.1153C128.097 12.1153 126.23 12.8125 124.9 14.1879C123.57 15.5635 122.896 17.4666 122.896 19.8458C122.896 22.1054 123.554 23.9229 124.852 25.2469C126.15 26.5718 127.917 27.2429 130.102 27.2429C132.38 27.2429 134.209 26.5355 135.539 25.1414C136.869 23.7483 137.542 21.863 137.542 19.5395C137.542 17.2446 136.91 15.4135 135.663 14.0981C134.415 12.7824 132.659 12.1153 130.446 12.1153ZM117.426 12.1153C115.827 12.1153 114.506 12.5293 113.495 13.3455C112.48 14.1667 111.964 15.244 111.964 16.5474C111.964 17.2249 112.076 17.8268 112.295 18.3373C112.515 18.8494 112.856 19.3002 113.308 19.6788C113.758 20.054 114.451 20.4474 115.371 20.8475C116.143 21.1695 116.72 21.442 117.086 21.6566C117.444 21.867 117.698 22.0786 117.841 22.2846C117.98 22.4861 118.051 22.762 118.051 23.1027C118.051 24.0724 117.335 24.5439 115.859 24.5439C115.312 24.5439 114.688 24.4285 114.005 24.2003C113.326 23.9755 112.685 23.6464 112.105 23.2245L111.964 23.1224V26.431L112.016 26.4556C112.496 26.6801 113.101 26.8689 113.815 27.0181C114.527 27.1672 115.174 27.2432 115.736 27.2432C117.47 27.2432 118.867 26.8271 119.886 26.0056C120.911 25.179 121.431 24.0764 121.431 22.7275C121.431 21.7547 121.151 20.9207 120.599 20.2478C120.052 19.5804 119.101 18.9678 117.775 18.4262C116.719 17.9968 116.042 17.6404 115.763 17.3667C115.494 17.1022 115.357 16.7285 115.357 16.2552C115.357 15.8354 115.526 15.4993 115.872 15.2268C116.221 14.9531 116.707 14.8137 117.316 14.8137C117.881 14.8137 118.46 14.9042 119.035 15.0813C119.61 15.2588 120.115 15.4962 120.536 15.7865L120.675 15.8825V12.744L120.621 12.7206C120.233 12.5517 119.72 12.4075 119.097 12.29C118.477 12.1741 117.915 12.1153 117.426 12.1153ZM103.119 24.4329C101.888 24.4329 100.917 24.0192 100.233 23.2045C99.5441 22.3855 99.1958 21.2184 99.1958 19.7348C99.1958 18.2047 99.5444 17.0069 100.233 16.1734C100.917 15.3455 101.879 14.9254 103.092 14.9254C104.268 14.9254 105.204 15.3267 105.875 16.1187C106.549 16.9152 106.892 18.1033 106.892 19.6514C106.892 21.2184 106.57 22.4224 105.935 23.2276C105.305 24.0269 104.358 24.4332 103.119 24.4332V24.4329ZM103.271 12.1153C100.921 12.1153 99.0543 12.8125 97.7245 14.1879C96.3949 15.5635 95.7205 17.4666 95.7205 19.8458C95.7205 22.1063 96.3788 23.9229 97.6768 25.2469C98.9748 26.5718 100.741 27.2429 102.927 27.2429C105.204 27.2429 107.033 26.5355 108.363 25.1414C109.693 23.7483 110.367 21.863 110.367 19.5395C110.367 17.2446 109.734 15.4135 108.487 14.0981C107.238 12.7824 105.483 12.1153 103.271 12.1153H103.271ZM90.5701 14.9623V12.4629H87.2184V26.8948H90.5698V19.5124C90.5698 18.257 90.8509 17.2258 91.4054 16.4468C91.9528 15.677 92.6821 15.2874 93.573 15.2874C93.8748 15.2874 94.2136 15.3375 94.5807 15.4374C94.9438 15.5365 95.2071 15.6441 95.3622 15.7573L95.5028 15.8606V12.4383L95.4488 12.4146C95.1363 12.2802 94.6952 12.2125 94.1362 12.2125C93.2942 12.2125 92.5403 12.4865 91.8948 13.0263C91.3283 13.5005 90.9187 14.151 90.6053 14.9623H90.5698H90.5701ZM81.2166 12.1153C79.679 12.1153 78.3075 12.4493 77.1407 13.1075C75.9717 13.7672 75.0678 14.7095 74.453 15.9074C73.8406 17.1025 73.5299 18.4981 73.5299 20.0549C73.5299 21.4183 73.8311 22.6697 74.4269 23.7726C75.0229 24.8773 75.867 25.7415 76.9348 26.3406C78.0015 26.9394 79.2339 27.2432 80.5987 27.2432C82.1915 27.2432 83.5515 26.9203 84.6418 26.2846L84.6858 26.2588V23.1485L84.5449 23.2528C84.0433 23.6211 83.4909 23.9125 82.9053 24.1176C82.313 24.3268 81.7728 24.4329 81.2991 24.4329C79.9844 24.4329 78.9287 24.0158 78.1621 23.1944C77.3939 22.3714 77.0047 21.2162 77.0047 19.7622C77.0047 18.2992 77.4109 17.1142 78.2113 16.2395C79.0089 15.3679 80.0664 14.9257 81.3547 14.9257C82.4563 14.9257 83.5296 15.3034 84.5452 16.0498L84.6858 16.1531V12.8762L84.6403 12.8501C84.2583 12.6336 83.737 12.4546 83.0896 12.3189C82.4456 12.1836 81.8153 12.1153 81.2163 12.1153H81.2166ZM71.2212 12.4629H67.8697V26.8948H71.2215V12.4632L71.2212 12.4629ZM69.5798 6.31503C69.0284 6.31503 68.5474 6.50509 68.1518 6.88214C67.755 7.26042 67.5537 7.7362 67.5537 8.29778C67.5537 8.85044 67.7525 9.3176 68.1457 9.68542C68.5362 10.0523 69.0187 10.2384 69.5798 10.2384C70.1409 10.2384 70.6251 10.0523 71.0205 9.68604C71.4182 9.3176 71.6201 8.85044 71.6201 8.29778C71.6201 7.75557 71.4237 7.28441 71.0369 6.89721C70.6503 6.51094 70.1603 6.31503 69.5798 6.31503ZM61.2179 11.3981V26.8948H64.6379V6.75697H59.9044L53.8871 21.7145L48.0477 6.75697H43.1211V26.8948H46.3353V11.3966H46.4458L52.6119 26.8945H55.0375L61.107 11.3981H61.2176H61.2179Z" fill="#037B35"/>
<path d="M15.7664 15.9975H0V0.0275879H15.7664V15.9975Z" fill="#037B35"/>
<path d="M33.1743 15.9975H17.4082V0.0275879H33.1743V15.9975Z" fill="#037B35"/>
<path d="M15.7658 33.6359H0V17.6663H15.7658V33.6359Z" fill="#037B35"/>
<path d="M33.1743 33.6359H17.4082V17.6663H33.1743V33.6359Z" fill="#037B35"/>
</g>
<defs>
<clipPath id="clip0_18_587">
<rect width="155.457" height="33.83" fill="white" transform="translate(0 0.0275879)"/>
</clipPath>
</defs>
</svg>
